<svg width="51" height="88" viewBox="0 0 51 88" fill="none" xmlns="http://www.w3.org/2000/svg">
<circle cx="5" cy="5.00012" r="5" fill="#1C7ED6"/>
<circle cx="19" cy="18.0001" r="5" fill="#1C7ED6"/>
<circle cx="5" cy="31.0001" r="5" fill="#1C7ED6"/>
<circle cx="5" cy="44.0001" r="5" fill="#1C7ED6"/>
<circle cx="5" cy="57.0001" r="5" fill="#1C7ED6"/>
<circle cx="5" cy="70.0002" r="5" fill="#1C7ED6"/>
<circle cx="5" cy="83.0002" r="5" fill="#1C7ED6"/>
<circle cx="18" cy="5.00012" r="5" fill="#1C7ED6"/>
<circle cx="5" cy="18.0001" r="5" fill="#1C7ED6"/>
<circle cx="19" cy="31.0001" r="5" fill="#1C7ED6"/>
<circle cx="19" cy="44.0001" r="5" fill="#1C7ED6"/>
<circle cx="19" cy="57.0001" r="5" fill="#1C7ED6"/>
<circle cx="19" cy="70.0002" r="5" fill="#1C7ED6"/>
<circle cx="19" cy="83.0002" r="5" fill="#1C7ED6"/>
<circle cx="33" cy="5.00012" r="5" fill="white"/>
<circle cx="46" cy="5.00012" r="5" fill="white"/>
<circle cx="33" cy="18.0001" r="5" fill="white"/>
<circle cx="46" cy="18.0001" r="5" fill="white"/>
<circle cx="33" cy="31.0001" r="5" fill="white"/>
<circle cx="33" cy="44.0001" r="5" fill="white"/>
<circle cx="33" cy="57.0001" r="5" fill="white"/>
<circle cx="33" cy="70.0002" r="5" fill="white"/>
<circle cx="33" cy="83.0002" r="5" fill="white"/>
<circle cx="46" cy="31.0001" r="5" fill="white"/>
<circle cx="46" cy="44.0001" r="5" fill="white"/>
<circle cx="46" cy="57.0001" r="5" fill="white"/>
<circle cx="46" cy="70.0002" r="5" fill="white"/>
<circle cx="46" cy="83.0002" r="5" fill="white"/>
</svg>
